<svg xmlns="http://www.w3.org/2000/svg" xmlns:xlink="http://www.w3.org/1999/xlink" width="980" height="979.813" viewBox="0 0 980 979.813">
  <defs>
    <style>
      .cls-1 {
        fill-rule: evenodd;
      }
    </style>
  </defs>
    <path d="M377,0C559.587-3.277,684.733,111.679,739,238c19.536,45.476,41.024,116.325,29,184-8.718,49.064-20.759,88.918-38,128l-30,53L963,865c22.42,28.469,19.868,76.416-8,98-52.319,40.52-90.462-1.456-121-32L602,700l-57,33c-39.983,17.608-80.3,28-132,36-70.354,10.889-138.111-13.949-184-34C105.093,680.86-36.658,515.96,6,318c7.17-33.275,16.647-63.849,29-92C76.436,131.572,157.022,61.195,255,23c24.866-9.693,53.246-14.933,82-20ZM364,140c-23.636,9.33-50.129,8.721-72,18-68.313,28.982-119.78,84.957-143,159-44.633,142.323,53.98,256.9,146,295,26.917,11.146,68.3,25.224,111,18,98.9-16.732,168.073-65.25,203-145,66.687-152.268-29.963-287.326-141-331C438.74,142.491,405.447,139.8,364,140Z" transform="translate(0.969 0.031)"/>
</svg>
