<svg xmlns="http://www.w3.org/2000/svg" viewBox="0 0 622.437 769.375">
  <path d="M227,129c20.618,0.782,33.326,15.384,47,24q42.3,26.652,84,53Q527.416,312.539,696,419c33.56,21.086,66.822,42.177,100,63,11.461,7.193,32.193,14.151,27,37-4.119,18.124-24.167,24.342-38,33-33.188,20.772-66.433,41.906-100,63Q529.687,712.6,374,811c-30.48,19.157-61.088,38.584-92,58-14.575,9.155-30.214,25.445-49,29-12.765,2.415-24.012-7.076-28-14-5.658-9.822-3-31.45-3-46V185c0-13.615-2.266-32.926,3-42C210.037,134.323,217.686,133.694,227,129Z" transform="translate(-201.375 -129)"/>
</svg>
