<svg xmlns="http://www.w3.org/2000/svg" viewBox="0 0 512 512">
  <path d="M3785 4987 c-133 -44 -252 -145 -312 -265 l-30 -58 -96 38 c-54 22 -145 51 -205 66 l-107 26 -1075 4 c-777 2 -1092 0 -1135 -8 -126 -24 -271 -123 -332 -227 -65 -111 -81 -262 -42 -389 19 -62 20 -68 4 -77 -45 -25 -122 -98 -156 -147 -82 -120 -106 -285 -60 -419 12 -35 21 -64 19 -66 -2 -1 -23 -16 -48 -32 -149 -101 -229 -280 -203 -457 12 -82 54 -181 100 -236 l30 -34 -33 -47 c-218 -303 -75 -703 296 -825 51 -17 112 -19 763 -22 389 -1 707 -5 707 -8 0 -3 -18 -67 -40 -143 -48 -165 -94 -379 -110 -513 -15 -121 -8 -323 14 -402 72 -260 250 -492 455 -594 92 -45 179 -53 296 -27 92 20 225 85 259 126 l26 31 0 377 0 378 309 668 c169 368 313 671 320 673 6 2 11 -6 11 -17 0 -39 28 -89 59 -105 44 -23 1143 -24 1240 -1 93 22 177 71 251 145 74 74 123 158 145 251 22 96 22 1852 0 1948 -41 172 -172 320 -340 384 -58 21 -72 22 -485 24 -419 2 -426 2 -495 -20z m930 -215 c96 -44 165 -132 185 -237 8 -43 10 -317 8 -945 l-3 -885 -26 -55 c-37 -80 -81 -125 -157 -162 l-67 -33 -512 -3 -513 -3 0 1043 c0 679 4 1056 10 1080 14 49 66 125 112 161 81 65 101 67 528 64 378 -2 386 -2 435 -25z m-1635 -209 c112 -28 245 -77 292 -108 l38 -25 0 -903 0 -903 -80 -39 c-44 -22 -89 -48 -99 -60 -10 -11 -164 -335 -342 -720 l-324 -700 -5 -365 -5 -365 -56 -22 c-31 -12 -81 -25 -112 -29 -77 -9 -131 19 -233 120 -94 93 -161 202 -201 321 -64 190 -20 524 126 976 28 86 51 170 51 188 0 20 -10 42 -29 63 l-29 33 -804 5 -803 5 -49 23 c-105 48 -165 118 -192 221 -31 122 22 256 131 331 87 60 83 142 -11 204 -119 79 -161 220 -101 341 39 80 100 125 196 146 64 13 101 53 101 108 0 29 -10 50 -43 94 -53 67 -72 127 -64 206 11 128 81 197 245 240 81 22 103 109 44 178 -61 73 -77 111 -77 193 0 57 5 84 22 115 38 72 108 124 190 144 22 6 481 8 1088 7 1029 -2 1052 -3 1135 -23z" transform="translate(0.000000,512.000000) scale(0.100000,-0.100000)" />
</svg>
